<svg width="22" height="19" viewBox="0 0 22 19" fill="none" xmlns="http://www.w3.org/2000/svg">
<path d="M1 1.97309L2.28 0.705078L19 17.3989L17.73 18.6768L14.65 15.6017C13.5 15.9811 12.28 16.1808 11 16.1808C6 16.1808 1.73 13.0756 0 8.69253C0.69 6.93529 1.79 5.38772 3.19 4.15965L1 1.97309ZM11 5.69724C11.7956 5.69724 12.5587 6.01281 13.1213 6.57454C13.6839 7.13626 14 7.89813 14 8.69253C14 9.04198 13.94 9.38145 13.83 9.69096L10 5.86697C10.31 5.75714 10.65 5.69724 11 5.69724ZM11 1.20429C16 1.20429 20.27 4.30942 22 8.69253C21.18 10.7693 19.79 12.5664 18 13.8744L16.58 12.4466C17.94 11.5081 19.06 10.2301 19.82 8.69253C18.17 5.3378 14.76 3.20116 11 3.20116C9.91 3.20116 8.84 3.38088 7.84 3.70037L6.3 2.17277C7.74 1.55374 9.33 1.20429 11 1.20429ZM2.18 8.69253C3.83 12.0473 7.24 14.1839 11 14.1839C11.69 14.1839 12.37 14.114 13 13.9742L10.72 11.6878C9.29 11.5381 8.15 10.3998 8 8.97209L4.6 5.56744C3.61 6.41611 2.78 7.47445 2.18 8.69253Z" fill="#252C61"/>
</svg>
