<svg width="22" height="16" viewBox="0 0 22 16" fill="none" xmlns="http://www.w3.org/2000/svg">
<path d="M11 5.24514C11.7956 5.24514 12.5587 5.56071 13.1213 6.12244C13.6839 6.68417 14 7.44603 14 8.24044C14 9.03484 13.6839 9.7967 13.1213 10.3584C12.5587 10.9202 11.7956 11.2357 11 11.2357C10.2044 11.2357 9.44129 10.9202 8.87868 10.3584C8.31607 9.7967 8 9.03484 8 8.24044C8 7.44603 8.31607 6.68417 8.87868 6.12244C9.44129 5.56071 10.2044 5.24514 11 5.24514V5.24514ZM11 0.752197C16 0.752197 20.27 3.85732 22 8.24044C20.27 12.6236 16 15.7287 11 15.7287C6 15.7287 1.73 12.6236 0 8.24044C1.73 3.85732 6 0.752197 11 0.752197ZM2.18 8.24044C3.83 11.5952 7.24 13.7318 11 13.7318C14.76 13.7318 18.17 11.5952 19.82 8.24044C18.17 4.88571 14.76 2.74906 11 2.74906C7.24 2.74906 3.83 4.88571 2.18 8.24044Z" fill="#CF4A1A"/>
</svg>
