<?xml version="1.0" encoding="UTF-8" standalone="no"?>
<!-- Created with Inkscape (http://www.inkscape.org/) -->

<svg
   width="49.696159mm"
   height="49.696159mm"
   viewBox="0 0 49.696159 49.696159"
   version="1.1"
   id="svg1222"
   inkscape:version="1.1.2 (0a00cf5339, 2022-02-04, custom)"
   sodipodi:docname="icone-qualimarc-fond-bleu.svg"
   xmlns:inkscape="http://www.inkscape.org/namespaces/inkscape"
   xmlns:sodipodi="http://sodipodi.sourceforge.net/DTD/sodipodi-0.dtd"
   xmlns="http://www.w3.org/2000/svg"
   xmlns:svg="http://www.w3.org/2000/svg">
  <sodipodi:namedview
     id="namedview1224"
     pagecolor="#ffffff"
     bordercolor="#666666"
     borderopacity="1.0"
     inkscape:pageshadow="2"
     inkscape:pageopacity="0.0"
     inkscape:pagecheckerboard="0"
     inkscape:document-units="mm"
     showgrid="false"
     inkscape:zoom="0.74029882"
     inkscape:cx="79.022144"
     inkscape:cy="126.97575"
     inkscape:window-width="1920"
     inkscape:window-height="1017"
     inkscape:window-x="-8"
     inkscape:window-y="-8"
     inkscape:window-maximized="1"
     inkscape:current-layer="layer1"
     fit-margin-top="0"
     fit-margin-left="0"
     fit-margin-right="0"
     fit-margin-bottom="0" />
  <defs
     id="defs1219" />
  <g
     inkscape:label="Calque 1"
     inkscape:groupmode="layer"
     id="layer1"
     transform="translate(-84.159142,-115.253)">
    <path
       d="m 133.8553,140.10161 c 0,13.7227 -11.12485,24.84755 -24.8472,24.84755 -13.724111,0 -24.848958,-11.12485 -24.848958,-24.84755 0,-13.72376 11.124847,-24.84861 24.848958,-24.84861 13.72235,0 24.8472,11.12485 24.8472,24.84861 z"
       style="fill:#252c61;fill-opacity:1;fill-rule:evenodd;stroke:none;stroke-width:0.352778"
       id="path1328" />
    <g
       id="g1368"
       transform="matrix(0.35277777,0,0,0.35277777,61.155562,41.828309)">
      <path
         d="m 176.352,257.996 -22.668,3.934 6.968,-9.895 c -8.125,-7.512 -19.562,-11.269 -31.304,-9.23 -20.039,3.48 -33.453,22.527 -29.973,42.566 1.441,8.293 5.52,15.387 11.254,20.695 6.707,6.594 18.379,11.461 31.301,9.219 6.843,-1.191 12.488,-4.008 17,-7.722 l 7.023,6.078 c -6.152,5.422 -13.812,9.269 -22.437,10.765 -24.938,4.332 -48.879,-12.527 -53.207,-37.461 -4.329,-24.937 12.531,-48.879 37.464,-53.207 14.235,-2.472 28.114,1.891 38.2,10.739 l 6.441,-9.149 3.938,22.668"
         style="fill:#676c91;fill-opacity:1;fill-rule:nonzero;stroke:#676c91;stroke-width:3.98548;stroke-linecap:round;stroke-linejoin:round;stroke-miterlimit:4;stroke-dasharray:none;stroke-opacity:1"
         id="path1370" />
    </g>
    <path
       d="m 92.70977,140.45051 c 0,0.66675 -0.107245,1.24707 -0.32385,1.73884 -0.214842,0.49072 -0.513998,0.88477 -0.895703,1.1811 l 1.185333,0.93169 -0.935919,0.82797 -1.518356,-1.22097 c -0.173919,0.0303 -0.352778,0.0441 -0.539044,0.0441 -0.590903,0 -1.119011,-0.14182 -1.583267,-0.4258 -0.462844,-0.28364 -0.822678,-0.68898 -1.077736,-1.21532 -0.254705,-0.52917 -0.383117,-1.137 -0.386997,-1.82175 v -0.35277 c 0,-0.70274 0.125236,-1.3201 0.377472,-1.85209 0.255058,-0.53622 0.611717,-0.94685 1.073503,-1.23049 0.462844,-0.2868 0.992011,-0.43144 1.5875,-0.43144 0.594078,0 1.121833,0.14464 1.581855,0.43144 0.464609,0.28364 0.821267,0.69427 1.073503,1.23049 0.255058,0.53199 0.381706,1.14794 0.381706,1.84644 z m -1.489428,-0.32244 c 0,-0.74859 -0.133703,-1.31762 -0.401108,-1.70603 -0.268817,-0.38876 -0.650523,-0.58314 -1.146528,-0.58314 -0.493184,0 -0.873831,0.19297 -1.142295,0.5789 -0.267405,0.38171 -0.40393,0.94404 -0.406752,1.68522 v 0.34749 c 0,0.72884 0.133702,1.29399 0.402519,1.69474 0.267406,0.40252 0.653344,0.60361 1.156053,0.60361 0.493536,0 0.872419,-0.19297 1.137003,-0.57856 0.264583,-0.38876 0.398286,-0.95391 0.401108,-1.6951 z"
       style="fill:#ffffff;fill-opacity:1;fill-rule:nonzero;stroke:none;stroke-width:0.352778"
       id="path1372" />
    <path
       d="m 96.870078,143.31683 c -0.349956,0.42439 -0.833614,0.63641 -1.450975,0.63641 -0.56762,0 -1.001889,-0.16263 -1.302103,-0.48895 -0.297744,-0.32667 -0.449439,-0.80504 -0.456141,-1.43616 v -3.4738 h 1.414991 v 3.42582 c 0,0.55104 0.252236,0.82656 0.755297,0.82656 0.479425,0 0.810331,-0.1651 0.989542,-0.49883 v -3.75355 h 1.420636 v 5.30119 h -1.332442 z"
       style="fill:#ffffff;fill-opacity:1;fill-rule:nonzero;stroke:none;stroke-width:0.352778"
       id="path1374" />
    <path
       d="m 102.38223,143.85552 c -0.066,-0.12665 -0.11289,-0.2854 -0.14182,-0.47554 -0.34325,0.38311 -0.78951,0.57326 -1.33808,0.57326 -0.51964,0 -0.950738,-0.14993 -1.293991,-0.4505 -0.33902,-0.30056 -0.508353,-0.67945 -0.508353,-1.137 0,-0.56092 0.206728,-0.99201 0.621242,-1.29258 0.417692,-0.30021 1.021292,-0.45332 1.807982,-0.45614 h 0.65194 v -0.30304 c 0,-0.24518 -0.0635,-0.44097 -0.19156,-0.58843 -0.12418,-0.14746 -0.32103,-0.22048 -0.59267,-0.22048 -0.23812,0 -0.4258,0.0564 -0.56338,0.17074 -0.13371,0.11465 -0.20144,0.27164 -0.20144,0.47131 h -1.414992 c 0,-0.30727 0.0949,-0.59125 0.283634,-0.85302 0.190147,-0.26176 0.457552,-0.46566 0.803628,-0.61171 0.34572,-0.15029 0.73589,-0.22613 1.16558,-0.22613 0.65334,0 1.17157,0.16545 1.55469,0.49494 0.38417,0.32632 0.57714,0.7867 0.57714,1.38219 v 2.29693 c 0.003,0.50306 0.073,0.88477 0.21096,1.14265 v 0.0826 z m -1.17122,-0.9839 c 0.20955,0 0.40252,-0.0469 0.57891,-0.13793 0.17639,-0.0949 0.30585,-0.22049 0.39123,-0.37747 v -0.91088 h -0.52917 c -0.70838,0 -1.08585,0.24518 -1.13136,0.73449 l -0.006,0.084 c 0,0.17639 0.0621,0.32103 0.18626,0.43568 0.12383,0.1143 0.29493,0.17215 0.50977,0.17215 z"
       style="fill:#ffffff;fill-opacity:1;fill-rule:nonzero;stroke:none;stroke-width:0.352778"
       id="path1376" />
    <path
       d="m 104.76348,136.33007 h 1.42064 v 7.52545 h -1.42064 z"
       style="fill:#ffffff;fill-opacity:1;fill-rule:nonzero;stroke:none;stroke-width:0.352778"
       id="path1378" />
    <path
       d="m 107.42307,138.55433 h 1.42205 v 5.30119 h -1.42205 z"
       style="fill:#ffffff;fill-opacity:1;fill-rule:nonzero;stroke:none;stroke-width:0.352778"
       id="path1380" />
    <path
       d="m 107.34052,137.18308 c 0,-0.21378 0.0702,-0.38735 0.21096,-0.52493 0.14323,-0.13653 0.33761,-0.20532 0.58279,-0.20532 0.24236,0 0.43392,0.0688 0.57891,0.20532 0.14323,0.13758 0.21484,0.31115 0.21484,0.52493 0,0.21484 -0.073,0.39123 -0.22048,0.52917 -0.14323,0.13652 -0.33479,0.20532 -0.57327,0.20532 -0.23848,0 -0.43145,-0.0688 -0.5775,-0.20532 -0.14463,-0.13794 -0.21625,-0.31433 -0.21625,-0.52917 z"
       style="fill:#cf491b;fill-opacity:1;fill-rule:nonzero;stroke:none;stroke-width:0.352778"
       id="path1382" />
    <path
       d="m 111.21014,137.04656 2.52589,6.04414 2.53541,-6.04414 h 0.77188 v 6.84882 h -0.57891 v -2.98203 l 0.0469,-3.05787 -2.54917,6.0399 h -0.44803 l -2.53964,-6.01627 0.0469,3.01484 v 3.00143 h -0.57891 v -6.84882 z"
       style="fill:#ffffff;fill-opacity:1;fill-rule:nonzero;stroke:none;stroke-width:0.352778"
       id="path1384" />
    <path
       d="m 121.85944,143.89538 c -0.0564,-0.1598 -0.0921,-0.39687 -0.10724,-0.71084 -0.19861,0.25753 -0.45085,0.45614 -0.75812,0.59796 -0.30445,0.13793 -0.62689,0.20672 -0.96873,0.20672 -0.4893,0 -0.88618,-0.13652 -1.19062,-0.40922 -0.30057,-0.27305 -0.4505,-0.61736 -0.4505,-1.03505 0,-0.49459 0.20532,-0.88759 0.61595,-1.17545 0.41346,-0.28928 0.98919,-0.43251 1.72508,-0.43251 h 1.0213 v -0.57891 c 0,-0.36371 -0.11289,-0.64911 -0.33902,-0.85725 -0.2219,-0.20955 -0.54857,-0.31397 -0.97826,-0.31397 -0.39158,0 -0.71684,0.10054 -0.97296,0.30021 -0.25788,0.20109 -0.38594,0.44239 -0.38594,0.72496 l -0.56515,-0.004 c 0,-0.40499 0.18909,-0.7553 0.56515,-1.04987 0.37606,-0.29774 0.83926,-0.44661 1.38783,-0.44661 0.56762,0 1.01424,0.14322 1.34056,0.42862 0.32949,0.28116 0.49882,0.67663 0.50729,1.18498 v 2.40877 c 0,0.49212 0.0522,0.86007 0.15558,1.10525 v 0.0564 z m -1.76777,-0.40498 c 0.37607,0 0.71085,-0.091 1.00577,-0.27305 0.29775,-0.18168 0.514,-0.4244 0.64912,-0.72884 v -1.11901 h -1.00613 c -0.56197,0.006 -1.00047,0.109 -1.31727,0.31009 -0.31679,0.1972 -0.47554,0.4699 -0.47554,0.81844 0,0.2854 0.10477,0.52247 0.31573,0.70979 0.21343,0.18874 0.48931,0.28258 0.82832,0.28258 z"
       style="fill:#ffffff;fill-opacity:1;fill-rule:nonzero;stroke:none;stroke-width:0.352778"
       id="path1386" />
    <path
       d="m 126.1591,139.28458 c -0.11853,-0.0208 -0.24553,-0.0318 -0.38029,-0.0318 -0.35137,0 -0.64912,0.0977 -0.89465,0.29633 -0.24095,0.19438 -0.4131,0.47802 -0.51647,0.8502 v 3.49602 h -0.56091 v -5.09023 h 0.55104 l 0.01,0.80892 c 0.2974,-0.60254 0.77576,-0.90275 1.4344,-0.90275 0.15698,0 0.27975,0.0208 0.37077,0.0607 z"
       style="fill:#ffffff;fill-opacity:1;fill-rule:nonzero;stroke:none;stroke-width:0.352778"
       id="path1388" />
    <path
       d="m 128.84056,143.51368 c 0.39159,0 0.71932,-0.10866 0.98249,-0.32914 0.2674,-0.2219 0.41204,-0.50871 0.43286,-0.86007 h 0.54151 c -0.0152,0.31009 -0.11289,0.59407 -0.2921,0.8516 -0.1778,0.25365 -0.41628,0.45191 -0.71367,0.5969 -0.29492,0.14464 -0.61207,0.21625 -0.95109,0.21625 -0.66816,0 -1.19732,-0.23142 -1.59032,-0.69603 -0.38841,-0.46425 -0.58279,-1.08867 -0.58279,-1.87254 v -0.16969 c 0,-0.50165 0.0882,-0.94544 0.26317,-1.33103 0.17498,-0.38594 0.42722,-0.68368 0.75248,-0.89323 0.32949,-0.21061 0.71367,-0.31538 1.15358,-0.31538 0.5581,0 1.01671,0.16686 1.37795,0.49882 0.36372,0.33197 0.5581,0.77047 0.58279,1.31198 h -0.54151 c -0.0247,-0.39828 -0.16828,-0.71931 -0.43286,-0.96484 -0.25894,-0.24377 -0.58843,-0.36654 -0.98637,-0.36654 -0.5087,0 -0.90417,0.18344 -1.18674,0.55139 -0.27834,0.36654 -0.41734,0.88054 -0.41734,1.54199 v 0.16546 c 0,0.64875 0.139,1.15464 0.41734,1.51835 0.28257,0.36407 0.67945,0.54575 1.19062,0.54575 z"
       style="fill:#ffffff;fill-opacity:1;fill-rule:nonzero;stroke:none;stroke-width:0.352778"
       id="path1390" />
    <path
       d="m 111.84796,146.02863 0.84773,0.12418 c 0.0702,0.01 0.12806,0.0607 0.15134,0.12806 0.0222,0.0674 0.003,0.14181 -0.0466,0.19297 l -0.61489,0.60078 0.14499,0.86395 c 0.0123,0.0702 -0.0166,0.14217 -0.0758,0.18344 -0.0579,0.0427 -0.13512,0.048 -0.19862,0.0138 l -0.75635,-0.40252 -0.75671,0.40252 c -0.0635,0.0342 -0.14041,0.0289 -0.19826,-0.0138 -0.0593,-0.0413 -0.0882,-0.11324 -0.0759,-0.18344 l 0.14464,-0.86395 -0.61313,-0.60078 c -0.0511,-0.0512 -0.0691,-0.12559 -0.0469,-0.19297 0.0219,-0.0674 0.0811,-0.11712 0.1517,-0.12806 l 0.84596,-0.12418 0.37888,-0.77858 c 0.0318,-0.0649 0.0981,-0.10618 0.16969,-0.10618 0.073,0 0.13758,0.0413 0.16933,0.10618 z"
       style="fill:#cf491b;fill-opacity:1;fill-rule:nonzero;stroke:none;stroke-width:0.352778"
       id="path1392" />
    <path
       d="m 116.40232,146.02863 0.84773,0.12418 c 0.0688,0.01 0.12806,0.0607 0.15028,0.12806 0.0233,0.0674 0.004,0.14181 -0.0455,0.19297 l -0.61453,0.60078 0.14463,0.86395 c 0.0124,0.0702 -0.0166,0.14217 -0.0758,0.18344 -0.0579,0.0427 -0.13512,0.048 -0.19862,0.0138 l -0.75635,-0.40252 -0.75671,0.40252 c -0.0631,0.0342 -0.14041,0.0289 -0.19826,-0.0138 -0.0593,-0.0413 -0.0882,-0.11324 -0.0759,-0.18344 l 0.14464,-0.86395 -0.61454,-0.60078 c -0.0497,-0.0512 -0.0688,-0.12559 -0.0455,-0.19297 0.0219,-0.0674 0.0801,-0.11712 0.1517,-0.12806 l 0.84596,-0.12418 0.37888,-0.77858 c 0.0318,-0.0649 0.0981,-0.10618 0.16969,-0.10618 0.0716,0 0.13758,0.0413 0.16933,0.10618 z"
       style="fill:#cf491b;fill-opacity:1;fill-rule:nonzero;stroke:none;stroke-width:0.352778"
       id="path1394" />
    <path
       d="m 120.95704,146.02863 0.84596,0.12418 c 0.0702,0.01 0.12947,0.0607 0.15169,0.12806 0.0219,0.0674 0.003,0.14181 -0.0455,0.19297 l -0.61454,0.60078 0.14464,0.86395 c 0.0123,0.0702 -0.0166,0.14217 -0.0759,0.18344 -0.0579,0.0427 -0.13512,0.048 -0.19862,0.0138 l -0.75635,-0.40252 -0.75671,0.40252 c -0.0631,0.0342 -0.1404,0.0289 -0.19826,-0.0138 -0.0593,-0.0413 -0.0882,-0.11324 -0.0759,-0.18344 l 0.14464,-0.86395 -0.61454,-0.60078 c -0.0497,-0.0512 -0.0688,-0.12559 -0.0455,-0.19297 0.0222,-0.0674 0.0801,-0.11712 0.1517,-0.12806 l 0.84596,-0.12418 0.37888,-0.77858 c 0.0317,-0.0649 0.0967,-0.10618 0.16969,-0.10618 0.0716,0 0.13794,0.0413 0.16933,0.10618 z"
       style="fill:#cf491b;fill-opacity:1;fill-rule:nonzero;stroke:none;stroke-width:0.352778"
       id="path1396" />
    <path
       d="m 125.5114,146.02863 0.84596,0.12418 c 0.0702,0.01 0.12947,0.0607 0.1517,0.12806 0.0219,0.0674 0.006,0.14181 -0.0469,0.19297 l -0.61313,0.60078 0.14464,0.86395 c 0.0123,0.0702 -0.0166,0.14217 -0.0759,0.18344 -0.0579,0.0427 -0.13511,0.048 -0.19826,0.0138 l -0.75671,-0.40252 -0.75636,0.40252 c -0.0635,0.0342 -0.14075,0.0289 -0.20002,-0.0138 -0.0579,-0.0413 -0.0868,-0.11324 -0.0744,-0.18344 l 0.14464,-0.86395 -0.61454,-0.60078 c -0.0508,-0.0512 -0.0688,-0.12559 -0.0455,-0.19297 0.0222,-0.0674 0.0801,-0.11712 0.15169,-0.12806 l 0.84596,-0.12418 0.37924,-0.77858 c 0.0314,-0.0649 0.0963,-0.10618 0.16933,-0.10618 0.0716,0 0.13794,0.0413 0.16969,0.10618 z"
       style="fill:#cf491b;fill-opacity:1;fill-rule:nonzero;stroke:none;stroke-width:0.352778"
       id="path1398" />
    <path
       d="m 130.06576,146.02863 0.84596,0.12418 c 0.0706,0.01 0.12982,0.0607 0.1517,0.12806 0.0222,0.0674 0.006,0.14181 -0.0469,0.19297 l -0.61313,0.60078 0.14464,0.86395 c 0.0123,0.0702 -0.018,0.14217 -0.0759,0.18344 -0.0593,0.0427 -0.13617,0.048 -0.19826,0.0138 l -0.75812,-0.40252 -0.75494,0.40252 c -0.0635,0.0342 -0.14076,0.0289 -0.20003,-0.0138 -0.0579,-0.0413 -0.0882,-0.11324 -0.0744,-0.18344 l 0.145,-0.86395 -0.6149,-0.60078 c -0.0508,-0.0512 -0.0688,-0.12559 -0.0466,-0.19297 0.0219,-0.0674 0.0811,-0.11712 0.15134,-0.12806 l 0.84631,-0.12418 0.3803,-0.77858 c 0.0303,-0.0649 0.0963,-0.10618 0.16792,-0.10618 0.073,0 0.13935,0.0413 0.1711,0.10618 z"
       style="fill:#cf491b;fill-opacity:1;fill-rule:nonzero;stroke:none;stroke-width:0.352778"
       id="path1400" />
  </g>
</svg>
