<?xml version="1.0" encoding="UTF-8" standalone="no"?>
<!-- Created with Inkscape (http://www.inkscape.org/) -->

<svg
   width="74.525101mm"
   height="36.54285mm"
   viewBox="0 0 74.525101 36.54285"
   version="1.1"
   id="svg1870"
   inkscape:version="1.1.2 (0a00cf5339, 2022-02-04, custom)"
   sodipodi:docname="logo-qualimarc.svg"
   xmlns:inkscape="http://www.inkscape.org/namespaces/inkscape"
   xmlns:sodipodi="http://sodipodi.sourceforge.net/DTD/sodipodi-0.dtd"
   xmlns="http://www.w3.org/2000/svg"
   xmlns:svg="http://www.w3.org/2000/svg">
  <sodipodi:namedview
     id="namedview1872"
     pagecolor="#ffffff"
     bordercolor="#666666"
     borderopacity="1.0"
     inkscape:pageshadow="2"
     inkscape:pageopacity="0.0"
     inkscape:pagecheckerboard="0"
     inkscape:document-units="mm"
     showgrid="false"
     fit-margin-top="0"
     fit-margin-left="0"
     fit-margin-right="0"
     fit-margin-bottom="0"
     inkscape:zoom="2.0887002"
     inkscape:cx="166.37141"
     inkscape:cy="96.710862"
     inkscape:window-width="1920"
     inkscape:window-height="1017"
     inkscape:window-x="-8"
     inkscape:window-y="-8"
     inkscape:window-maximized="1"
     inkscape:current-layer="layer1" />
  <defs
     id="defs1867" />
  <g
     inkscape:label="Calque 1"
     inkscape:groupmode="layer"
     id="layer1"
     transform="translate(-9.4339372,-86.556916)">
    <path
       d="m 55.744001,111.64304 1.242864,0.18313 c 0.102993,0.0135 0.189338,0.0874 0.222263,0.18663 0.03274,0.10007 0.0041,0.20908 -0.06837,0.28338 l -0.901229,0.88303 0.2128,1.26658 c 0.0174,0.10356 -0.02495,0.20907 -0.111514,0.27042 -0.08577,0.0613 -0.198935,0.0691 -0.291495,0.0197 l -1.110541,-0.59187 -1.109654,0.59187 c -0.09331,0.0491 -0.206701,0.0416 -0.292333,-0.0197 -0.08556,-0.0612 -0.128934,-0.16668 -0.110734,-0.27042 l 0.212758,-1.26658 -0.901388,-0.88303 c -0.0745,-0.0743 -0.101055,-0.18313 -0.06837,-0.28338 0.03248,-0.0993 0.118865,-0.17191 0.222521,-0.18663 l 1.24186,-0.18313 0.556961,-1.14331 c 0.04591,-0.095 0.142682,-0.15564 0.248245,-0.15564 0.106284,0 0.203237,0.0604 0.249081,0.15564 z"
       id="path2-1-0-9-8-8-8-0-4"
       style="fill:#cf491b;fill-opacity:1;stroke-width:0.00864442"
       inkscape:export-filename="C:\Users\arnaud\Documents\Site elements\qualimarc\logos-test.png"
       inkscape:export-xdpi="95.971619"
       inkscape:export-ydpi="95.971619" />
    <path
       d="m 62.427989,111.64306 1.242856,0.18314 c 0.102985,0.0135 0.189329,0.0874 0.22228,0.18662 0.03274,0.10007 0.0041,0.20908 -0.06837,0.28338 l -0.901197,0.88302 0.212758,1.26658 c 0.0174,0.10357 -0.02495,0.20908 -0.111505,0.27045 -0.08538,0.0612 -0.19896,0.0691 -0.291479,0.0197 l -1.110541,-0.59186 -1.109638,0.59186 c -0.09351,0.0491 -0.206742,0.0414 -0.292349,-0.0197 -0.08556,-0.0614 -0.128933,-0.16668 -0.110734,-0.27045 l 0.212775,-1.26658 -0.90142,-0.88302 c -0.0745,-0.0743 -0.101056,-0.18313 -0.06837,-0.28338 0.03258,-0.0993 0.118865,-0.1719 0.222571,-0.18662 l 1.241803,-0.18314 0.557002,-1.14333 c 0.04591,-0.095 0.142682,-0.15564 0.248229,-0.15564 0.106283,0 0.203252,0.0604 0.249081,0.15564 z"
       id="path2-1-8-6-7-7-0-2-1-1"
       style="fill:#cf491b;fill-opacity:1;stroke-width:0.00864442"
       inkscape:export-filename="C:\Users\arnaud\Documents\Site elements\qualimarc\logos-test.png"
       inkscape:export-xdpi="95.971619"
       inkscape:export-ydpi="95.971619" />
    <path
       d="m 69.112003,111.64304 1.242888,0.18313 c 0.102994,0.0135 0.189338,0.0874 0.222247,0.18663 0.03274,0.10007 0.0041,0.2091 -0.06837,0.2834 l -0.901238,0.88301 0.212801,1.26654 c 0.0174,0.10378 -0.02519,0.20913 -0.111514,0.27048 -0.08556,0.0613 -0.198935,0.0691 -0.291488,0.0197 l -1.110507,-0.59185 -1.109679,0.59185 c -0.09351,0.0491 -0.2067,0.0414 -0.292325,-0.0197 -0.08577,-0.0612 -0.129123,-0.16668 -0.110734,-0.27048 l 0.212775,-1.26654 -0.901404,-0.88301 c -0.0745,-0.0743 -0.101056,-0.18313 -0.06837,-0.2834 0.03248,-0.0993 0.118673,-0.17191 0.222513,-0.18663 l 1.241827,-0.18313 0.556985,-1.14331 c 0.04591,-0.095 0.142483,-0.15564 0.24822,-0.15564 0.106284,0 0.203279,0.0604 0.249115,0.15564 z"
       id="path2-1-8-8-6-6-41-6-5-3-0"
       style="fill:#cf491b;fill-opacity:1;stroke-width:0.00864442"
       inkscape:transform-center-x="-0.87844044"
       inkscape:transform-center-y="3.0749318"
       inkscape:export-filename="C:\Users\arnaud\Documents\Site elements\qualimarc\logos-test.png"
       inkscape:export-xdpi="95.971619"
       inkscape:export-ydpi="95.971619" />
    <path
       d="m 75.796074,111.64304 1.24283,0.18313 c 0.102995,0.0135 0.189331,0.0874 0.222264,0.18663 0.03274,0.10007 0.0058,0.2091 -0.06837,0.28338 l -0.901214,0.883 0.212758,1.26661 c 0.0174,0.10376 -0.02495,0.20907 -0.111512,0.27042 -0.08556,0.0612 -0.198953,0.0691 -0.291472,0.0197 l -1.110524,-0.59187 -1.109695,0.59187 c -0.09332,0.0491 -0.206701,0.0414 -0.292325,-0.0197 -0.08557,-0.0612 -0.128933,-0.16668 -0.110734,-0.27042 l 0.212775,-1.26661 -0.901412,-0.883 c -0.0745,-0.0743 -0.101056,-0.18313 -0.06837,-0.28338 0.03274,-0.0993 0.118673,-0.17191 0.222537,-0.18663 l 1.241828,-0.18313 0.556986,-1.14331 c 0.04591,-0.095 0.142674,-0.15564 0.248245,-0.15564 0.106474,0 0.203211,0.0604 0.249073,0.15564 z"
       id="path2-1-8-4-1-3-0-3-7-1-1"
       style="fill:#cf491b;fill-opacity:1;stroke-width:0.00864442"
       inkscape:export-filename="C:\Users\arnaud\Documents\Site elements\qualimarc\logos-test.png"
       inkscape:export-xdpi="95.971619"
       inkscape:export-ydpi="95.971619" />
    <path
       d="m 82.480054,111.64304 1.24284,0.18313 c 0.103,0.0135 0.18934,0.0874 0.2223,0.18663 0.0329,0.10007 0.006,0.20908 -0.0684,0.28338 l -0.90122,0.88298 0.21276,1.26663 c 0.0174,0.10376 -0.0252,0.20907 -0.11151,0.27042 -0.0857,0.0613 -0.19895,0.0691 -0.29146,0.0197 l -1.11057,-0.59184 -1.10964,0.59184 c -0.0933,0.0491 -0.20671,0.0414 -0.29234,-0.0197 -0.0856,-0.0612 -0.12913,-0.16668 -0.11073,-0.27042 l 0.21278,-1.26663 -0.90141,-0.88298 c -0.0745,-0.0743 -0.10107,-0.18313 -0.0684,-0.28338 0.0326,-0.0993 0.11886,-0.17191 0.22252,-0.18663 l 1.24181,-0.18313 0.55699,-1.14331 c 0.0459,-0.095 0.14268,-0.15564 0.24825,-0.15564 0.10628,0 0.20323,0.0604 0.24908,0.15564 z"
       id="path2-1-8-9-8-8-5-6-2-7-8"
       style="fill:#cf491b;fill-opacity:1;stroke-width:0.00864442"
       inkscape:transform-center-x="4.0414369"
       inkscape:transform-center-y="4.3927433"
       inkscape:export-filename="C:\Users\arnaud\Documents\Site elements\qualimarc\logos-test.png"
       inkscape:export-xdpi="95.971619"
       inkscape:export-ydpi="95.971619" />
    <g
       aria-label="Marc"
       transform="matrix(1.0005287,0,0,0.99947158,-20.410999,-101.41534)"
       id="text1688-9-2-7-1-9-1-8-8-99-2-9-9-6-8-5-1-9-6-4-3-9"
       style="font-size:14.7289px;line-height:1.25;letter-spacing:0px;word-spacing:0px;fill:#ffffff;stroke-width:0.920556"
       inkscape:export-filename="C:\Users\arnaud\Documents\Site elements\qualimarc\logos-test.png"
       inkscape:export-xdpi="95.971619"
       inkscape:export-ydpi="95.971619">
      <path
         d="m 74.032718,200.11392 3.862021,9.24153 3.876405,-9.24153 h 1.179463 v 10.47133 H 82.06601 v -4.55963 l 0.07192,-4.6747 -3.89798,9.23433 h -0.683226 l -3.883596,-9.19837 0.07192,4.60997 v 4.5884 h -0.884597 v -10.47133 z"
         style="font-weight:300;font-family:roboto;-inkscape-font-specification:'roboto Light'"
         id="path44811" />
      <path
         d="m 90.315057,210.58525 q -0.129453,-0.36678 -0.165413,-1.08597 -0.453086,0.58973 -1.157887,0.91337 -0.697609,0.31644 -1.48152,0.31644 -1.121928,0 -1.819537,-0.62569 -0.690417,-0.62569 -0.690417,-1.58221 0,-1.13631 0.942132,-1.79796 0.949323,-0.66165 2.639407,-0.66165 h 1.560631 v -0.8846 q 0,-0.83425 -0.517813,-1.30891 -0.510621,-0.48186 -1.495904,-0.48186 -0.898981,0 -1.488712,0.46028 -0.589732,0.46028 -0.589732,1.10755 l -0.863021,-0.007 q 0,-0.92774 0.863021,-1.60378 0.863022,-0.68322 2.121595,-0.68322 1.301724,0 2.049676,0.65445 0.755144,0.64727 0.776719,1.81235 v 3.68222 q 0,1.12912 0.237331,1.69009 v 0.0863 z m -2.704134,-0.6185 q 0.863021,0 1.539055,-0.41712 0.683225,-0.41713 0.992475,-1.11474 v -1.71166 h -1.539055 q -1.287341,0.0144 -2.013717,0.47466 -0.726377,0.45309 -0.726377,1.25138 0,0.65446 0.481854,1.08597 0.489046,0.43151 1.265765,0.43151 z"
         style="font-weight:300;font-family:roboto;-inkscape-font-specification:'roboto Light'"
         id="path44813" />
      <path
         d="m 96.888404,203.53724 q -0.27329,-0.0503 -0.58254,-0.0503 -0.805486,0 -1.36645,0.45309 -0.553772,0.44589 -0.791103,1.30172 v 5.34354 h -0.85583 v -7.78158 h 0.841446 l 0.01438,1.237 q 0.683225,-1.38083 2.193513,-1.38083 0.359592,0 0.568156,0.0935 z"
         style="font-weight:300;font-family:roboto;-inkscape-font-specification:'roboto Light'"
         id="path44815" />
      <path
         d="m 100.98776,210.00271 q 0.89898,0 1.50309,-0.50343 0.61131,-0.51062 0.66165,-1.31611 h 0.82706 q -0.036,0.712 -0.44589,1.30173 -0.40994,0.58254 -1.09316,0.91336 -0.67603,0.33083 -1.45275,0.33083 -1.531867,0 -2.430848,-1.0644 -0.891789,-1.06439 -0.891789,-2.86235 v -0.25891 q 0,-1.15069 0.402744,-2.03529 0.402743,-0.8846 1.150695,-1.36645 0.755144,-0.48185 1.761998,-0.48185 1.28015,0 2.10722,0.76233 0.83425,0.76234 0.89178,2.00653 h -0.82706 q -0.0575,-0.91337 -0.66165,-1.47433 -0.59692,-0.56096 -1.51029,-0.56096 -1.165075,0 -1.812341,0.84144 -0.640074,0.84145 -0.640074,2.35893 v 0.25171 q 0,1.48871 0.640074,2.32297 0.647266,0.83425 1.819541,0.83425 z"
         style="font-weight:300;font-family:roboto;-inkscape-font-specification:'roboto Light'"
         id="path44817" />
    </g>
    <g
       id="g64647-1-4-23-6-4-1-7-7-3-7-1"
       style="fill:#ffffff;fill-opacity:1"
       transform="matrix(0.62658961,0,0,0.62658951,-81.51081,-145.42406)"
       inkscape:transform-center-x="-66.777889"
       inkscape:transform-center-y="-141.024"
       inkscape:export-filename="C:\Users\arnaud\Documents\Site elements\qualimarc\logos-test.png"
       inkscape:export-xdpi="95.971619"
       inkscape:export-ydpi="95.971619">
      <path
         d="m 174.53792,398.51912 q 0,2.2584 -0.73066,3.93006 -0.73066,1.66059 -2.02592,2.66801 l 2.67908,2.10341 -2.11448,1.87093 -3.43188,-2.75658 q -0.58674,0.0996 -1.21776,0.0996 -2.00378,0 -3.5758,-0.96314 -1.57203,-0.96314 -2.43553,-2.74551 -0.86351,-1.79343 -0.87458,-4.11825 v -0.79709 q 0,-2.38017 0.85244,-4.18468 0.8635,-1.81557 2.42446,-2.77871 1.57202,-0.97422 3.58687,-0.97422 2.01484,0 3.57579,0.97422 1.57203,0.96314 2.42446,2.77871 0.86351,1.80451 0.86351,4.17361 z m -3.36546,-0.73066 q 0,-2.53516 -0.90779,-3.85256 -0.90779,-1.3174 -2.59051,-1.3174 -1.67166,0 -2.57945,1.30633 -0.90779,1.29526 -0.91886,3.80828 v 0.78601 q 0,2.46874 0.90779,3.83042 0.90779,1.36169 2.61266,1.36169 1.67165,0 2.56837,-1.30633 0.89672,-1.3174 0.90779,-3.83043 z"
         style="font-size:14.3335px;-inkscape-font-specification:'roboto Bold';letter-spacing:0px;word-spacing:0px;fill:#ffffff;fill-opacity:1;stroke-width:1.41703"
         id="path34007-9-3-0-0-3-5-6-7-2-1-8-8-4-2-3" />
      <path
         d="m 183.93685,404.99541 q -1.18456,1.43918 -3.2769,1.43918 -1.92628,0 -2.94477,-1.10706 -1.00743,-1.10706 -1.02957,-3.24368 v -7.84905 h 3.1994 v 7.73834 q 0,1.87093 1.70487,1.87093 1.62738,0 2.23626,-1.1292 v -8.48007 h 3.21047 v 11.97838 h -3.0112 z"
         style="font-size:14.3335px;-inkscape-font-specification:'roboto Bold';letter-spacing:0px;word-spacing:0px;fill:#ffffff;fill-opacity:1;stroke-width:1.41703"
         id="path34009-6-0-7-1-1-4-8-7-7-3-6-3-2-8-6" />
      <path
         d="m 196.39125,406.21318 q -0.22141,-0.43175 -0.32104,-1.07385 -1.16241,1.29526 -3.02227,1.29526 -1.76023,0 -2.92264,-1.01849 -1.15134,-1.0185 -1.15134,-2.56838 0,-1.90414 1.40597,-2.92264 1.41703,-1.01849 4.08504,-1.02956 h 1.47239 v -0.68638 q 0,-0.83029 -0.43175,-1.32847 -0.42069,-0.49817 -1.33955,-0.49817 -0.80815,0 -1.27311,0.38747 -0.4539,0.38747 -0.4539,1.06277 h -3.19939 q 0,-1.04063 0.64209,-1.92628 0.64209,-0.88564 1.81558,-1.38382 1.17348,-0.50925 2.63479,-0.50925 2.21412,0 3.50938,1.11813 1.30633,1.10706 1.30633,3.12191 v 5.1921 q 0.0111,1.70487 0.47603,2.57945 v 0.1882 z m -2.64587,-2.22519 q 0.70852,0 1.30633,-0.30998 0.59781,-0.32104 0.88565,-0.85243 v -2.05913 h -1.19562 q -2.40232,0 -2.55731,1.66059 l -0.0111,0.1882 q 0,0.59781 0.42068,0.98528 0.42069,0.38747 1.15135,0.38747 z"
         style="font-size:14.3335px;-inkscape-font-specification:'roboto Bold';letter-spacing:0px;word-spacing:0px;fill:#ffffff;fill-opacity:1;stroke-width:1.41703"
         id="path34011-6-2-2-8-0-5-3-7-0-2-0-4-8-6-7" />
      <path
         d="m 204.98203,406.21318 h -3.21047 v -17.00442 h 3.21047 z"
         style="font-size:14.3335px;-inkscape-font-specification:'roboto Bold';letter-spacing:0px;word-spacing:0px;fill:#ffffff;fill-opacity:1;stroke-width:1.41703"
         id="path34013-7-6-8-0-7-2-9-5-3-9-8-4-3-2-9" />
      <path
         d="m 210.99336,406.21318 h -3.21047 V 394.2348 h 3.21047 z"
         style="font-size:14.3335px;-inkscape-font-specification:'roboto Bold';letter-spacing:0px;word-spacing:0px;fill:#ffffff;fill-opacity:1;stroke-width:1.41703"
         id="path34015-43-2-0-7-5-1-0-3-3-6-4-2-4-1-4"
         sodipodi:nodetypes="ccccc" />
    </g>
    <path
       d="m 48.566287,99.656837 c 0,-0.30056 0.09938,-0.54799 0.298268,-0.74223 0.203442,-0.19423 0.478633,-0.29132 0.825475,-0.29132 0.342227,0 0.61504,0.097 0.818539,0.29132 0.203427,0.19424 0.305205,0.44167 0.305205,0.74223 0,0.30523 -0.104057,0.554943 -0.312142,0.749183 -0.203428,0.19423 -0.474033,0.29135 -0.811602,0.29135 -0.337583,0 -0.610424,-0.097 -0.818538,-0.29135 -0.203428,-0.19424 -0.305205,-0.443953 -0.305205,-0.749183 z"
       style="font-size:14.3335px;-inkscape-font-specification:'roboto Bold';letter-spacing:0px;word-spacing:0px;fill:#cf491b;fill-opacity:1;stroke-width:0.887897"
       id="path34015-4-3-1-3-4-5-9-7-0-5-7-3-6-6-4-4"
       sodipodi:nodetypes="scssscscs"
       inkscape:transform-center-x="-81.435038"
       inkscape:transform-center-y="-146.04269"
       inkscape:export-filename="C:\Users\arnaud\Documents\Site elements\qualimarc\logos-test.png"
       inkscape:export-xdpi="95.971619"
       inkscape:export-ydpi="95.971619" />
    <path
       d="m 43.574052,96.612267 -8.83722,1.53428 2.71674,-3.85821 c -3.16655,-2.92776 -7.62677,-4.3929 -12.20443,-3.59814 -7.812031,1.35631 -13.040971,8.78225 -11.684661,16.594323 0.56151,3.23444 2.15215,5.99885 4.38687,8.06883 2.615001,2.57087 7.166431,4.46802 12.203601,3.59348 2.66851,-0.46329 4.86917,-1.5611 6.62688,-3.00951 1.56028,-1.28569 2.77155,-2.84759 3.65131,-4.48716 l 3.19035,1.60592 c -1.02961,1.98345 -2.42177,3.76833 -4.10346,5.25087 -2.3978,2.11393 -5.38421,3.61318 -8.7475,4.1971 -9.72091,1.68769 -19.055191,-4.88491 -20.742871,-14.60581 -1.68771,-9.720873 4.88489,-19.055153 14.605821,-20.742883 5.54969,-0.96352 10.96111,0.73706 14.8921,4.18755 l 2.51224,-3.56783 1.53423,8.8372"
       id="path2-4-81-5-4-7-2-1-4-1-5"
       sodipodi:nodetypes="cccsscssccssssccc"
       style="display:inline;fill:#676c91;fill-opacity:1;stroke:#676c91;stroke-width:0.66298;stroke-linecap:round;stroke-linejoin:round;stroke-miterlimit:4;stroke-dasharray:none;stroke-opacity:1"
       inkscape:transform-center-x="-64.014817"
       inkscape:transform-center-y="-110.38506"
       inkscape:export-filename="C:\Users\arnaud\Documents\Site elements\qualimarc\logos-test.png"
       inkscape:export-xdpi="95.971619"
       inkscape:export-ydpi="95.971619" />
  </g>
</svg>
